<?xml version="1.0" encoding="utf-8"?>
<!-- Generator: Adobe Illustrator 26.0.2, SVG Export Plug-In . SVG Version: 6.00 Build 0)  -->
<svg version="1.1" id="Layer_1" xmlns="http://www.w3.org/2000/svg" xmlns:xlink="http://www.w3.org/1999/xlink" x="0px" y="0px"
	 viewBox="0 0 213 27.1" style="enable-background:new 0 0 213 27.1;" xml:space="preserve">
<style type="text/css">
	.st0{fill:#00A973;}
	.st1{fill:#686A6B;}
</style>
<g>
	<g id="XMLID_00000112607262824139330290000011883291266479241639_">
		<path id="XMLID_00000181780672914775285800000011428790121835982771_" class="st0" d="M39.7,25.7c-0.4,0-0.7-0.1-0.9-0.4
			c-0.3-0.2-0.4-0.6-0.4-0.9c0-0.3,0.1-0.7,0.4-0.9c0.5-0.5,1.4-0.5,1.9,0c0.2,0.2,0.4,0.6,0.4,0.9c0,0.4-0.1,0.7-0.4,0.9
			C40.4,25.6,40.1,25.7,39.7,25.7z"/>
		<path id="XMLID_00000148638638093890712450000016277606396695000241_" class="st0" d="M36.9,21.2c-0.3-0.7,0-1.4,0.7-1.7l0,0
			c0.7-0.3,1.4,0,1.7,0.7l0,0c0.3,0.7,0,1.4-0.7,1.7l0,0C38.5,22,38.3,22,38.1,22l0,0C37.6,22,37.1,21.7,36.9,21.2z M35.3,17.5
			c-0.3-0.7,0-1.4,0.7-1.7l0,0c0.7-0.3,1.4,0,1.7,0.7l0,0c0.3,0.7,0,1.4-0.7,1.7l0,0c-0.2,0.1-0.3,0.1-0.5,0.1l0,0
			C36,18.3,35.5,18,35.3,17.5z M33.7,13.8c-0.3-0.7,0-1.4,0.7-1.7l0,0c0.7-0.3,1.4,0,1.7,0.7l0,0c0.3,0.7,0,1.4-0.7,1.7l0,0
			c-0.2,0.1-0.3,0.1-0.5,0.1l0,0C34.4,14.6,33.9,14.3,33.7,13.8z M32.1,10.1c-0.3-0.7,0-1.4,0.7-1.7l0,0c0.7-0.3,1.4,0,1.7,0.7l0,0
			c0.3,0.7,0,1.4-0.7,1.7l0,0c-0.2,0.1-0.3,0.1-0.5,0.1l0,0C32.8,10.9,32.3,10.6,32.1,10.1z M30.4,6.4c-0.3-0.7,0-1.4,0.7-1.7l0,0
			c0.7-0.3,1.4,0,1.7,0.7l0,0c0.3,0.7,0,1.4-0.7,1.7l0,0c-0.2,0.1-0.3,0.1-0.5,0.1l0,0C31.1,7.2,30.7,6.9,30.4,6.4z"/>
		<path id="XMLID_00000067209917902850743070000012270757468660078764_" class="st0" d="M30,3.4c-0.4,0-0.7-0.1-0.9-0.4
			c-0.2-0.3-0.4-0.6-0.4-0.9c0-0.3,0.1-0.7,0.4-0.9c0.5-0.5,1.4-0.5,1.9,0c0.2,0.2,0.4,0.6,0.4,0.9c0,0.3-0.1,0.7-0.4,0.9
			C30.7,3.3,30.4,3.4,30,3.4z"/>
		<path id="XMLID_00000142159184494977763520000010854446864180862858_" class="st0" d="M21.8,21.9c-0.7-0.3-1-1.1-0.7-1.7l0,0
			c0.3-0.7,1.1-1,1.7-0.7l0,0c0.7,0.3,1,1.1,0.7,1.7l0,0c-0.2,0.5-0.7,0.8-1.2,0.8l0,0C22.1,22,21.9,22,21.8,21.9z M23.3,18.2
			c-0.7-0.3-1-1.1-0.7-1.7l0,0c0.3-0.7,1-1,1.7-0.7l0,0c0.7,0.3,1,1.1,0.7,1.7l0,0c-0.2,0.5-0.7,0.8-1.2,0.8l0,0
			C23.7,18.3,23.5,18.3,23.3,18.2z M24.9,14.5c-0.7-0.3-1-1.1-0.7-1.7l0,0c0.3-0.7,1-1,1.7-0.7l0,0c0.7,0.3,1,1,0.7,1.7l0,0
			c-0.2,0.5-0.7,0.8-1.2,0.8l0,0C25.2,14.6,25,14.6,24.9,14.5z M26.4,10.8c-0.7-0.3-1-1.1-0.7-1.7l0,0c0.3-0.7,1-1,1.7-0.7l0,0
			c0.7,0.3,1,1,0.7,1.7l0,0c-0.2,0.5-0.7,0.8-1.2,0.8l0,0C26.8,10.9,26.6,10.8,26.4,10.8z M28,7.1c-0.7-0.3-1-1.1-0.7-1.7h0
			c0.3-0.7,1-1,1.7-0.7l0,0c0.7,0.3,1,1,0.7,1.7l0,0l0,0l0,0c-0.2,0.5-0.7,0.8-1.2,0.8l0,0C28.3,7.2,28.1,7.1,28,7.1z"/>
		<path id="XMLID_00000065794968617213429330000015621492524624600254_" class="st0" d="M20.7,25.7c-0.4,0-0.7-0.1-0.9-0.4
			c-0.2-0.2-0.4-0.6-0.4-0.9c0-0.3,0.1-0.7,0.4-0.9c0.5-0.5,1.4-0.5,1.9,0c0.2,0.2,0.4,0.6,0.4,0.9c0,0.4-0.1,0.7-0.4,0.9
			C21.4,25.6,21.1,25.7,20.7,25.7z"/>
		<path id="XMLID_00000168099370442227891200000012355501175146517388_" class="st0" d="M17.9,21.2c-0.3-0.7,0-1.4,0.7-1.7l0,0
			c0.7-0.3,1.4,0,1.7,0.7l0,0c0.3,0.7,0,1.4-0.7,1.7l0,0C19.5,22,19.3,22,19.1,22l0,0C18.6,22,18.1,21.7,17.9,21.2z M16.3,17.5
			c-0.3-0.7,0-1.4,0.7-1.7l0,0c0.7-0.3,1.4,0,1.7,0.7l0,0c0.3,0.7,0,1.4-0.7,1.7l0,0c-0.2,0.1-0.3,0.1-0.5,0.1l0,0
			C17,18.3,16.5,18,16.3,17.5z M14.7,13.8c-0.3-0.7,0-1.4,0.7-1.7l0,0c0.7-0.3,1.4,0,1.7,0.7l0,0c0.3,0.7,0,1.4-0.7,1.7l0,0
			c-0.2,0.1-0.4,0.1-0.5,0.1l0,0C15.4,14.6,14.9,14.3,14.7,13.8z M13.1,10.1c-0.3-0.7,0-1.4,0.7-1.7l0,0c0.7-0.3,1.4,0,1.7,0.7l0,0
			c0.3,0.7,0,1.4-0.7,1.7l0,0c-0.2,0.1-0.3,0.1-0.5,0.1l0,0C13.8,10.9,13.3,10.6,13.1,10.1z M11.5,6.4c-0.3-0.7,0-1.4,0.7-1.7l0,0
			c0.7-0.3,1.4,0,1.7,0.7l0,0c0.3,0.7,0,1.4-0.7,1.7l0,0c-0.2,0.1-0.4,0.1-0.5,0.1l0,0C12.2,7.2,11.7,6.9,11.5,6.4z"/>
		<path id="XMLID_00000176036975195914596260000017264411743021026712_" class="st0" d="M11.1,3.4c-0.4,0-0.7-0.1-0.9-0.4
			C9.9,2.8,9.7,2.5,9.7,2.1c0-0.3,0.1-0.7,0.4-0.9c0.5-0.5,1.4-0.5,1.9,0c0.2,0.2,0.4,0.6,0.4,0.9c0,0.3-0.1,0.7-0.4,0.9
			C11.7,3.3,11.4,3.4,11.1,3.4z"/>
		<path id="XMLID_00000087399079689242448460000003992925363890664362_" class="st0" d="M2.8,21.9c-0.7-0.3-1-1.1-0.7-1.7l0,0
			c0.3-0.7,1-1,1.7-0.7l0,0c0.7,0.3,1,1.1,0.7,1.7l0,0C4.3,21.7,3.8,22,3.3,22l0,0C3.1,22,3,22,2.8,21.9z M4.3,18.2
			c-0.7-0.3-1-1-0.7-1.7l0,0c0.3-0.7,1.1-1,1.7-0.7l0,0c0.7,0.3,1,1.1,0.7,1.7l0,0c-0.2,0.5-0.7,0.8-1.2,0.8l0,0
			C4.7,18.3,4.5,18.3,4.3,18.2z M5.9,14.5c-0.7-0.3-1-1-0.7-1.7l0,0c0.3-0.7,1.1-1,1.7-0.7l0,0c0.7,0.3,1,1,0.7,1.7l0,0
			c-0.2,0.5-0.7,0.8-1.2,0.8l0,0C6.2,14.6,6.1,14.6,5.9,14.5z M7.4,10.8c-0.7-0.3-1-1-0.7-1.7l0,0c0.3-0.7,1-1,1.7-0.7l0,0
			c0.7,0.3,1,1.1,0.7,1.7l0,0C9,10.6,8.5,10.9,8,10.9l0,0C7.8,10.9,7.6,10.8,7.4,10.8z M9,7.1C8.3,6.8,8,6,8.3,5.3l0,0
			c0.3-0.7,1.1-1,1.7-0.7l0,0c0.7,0.3,1,1,0.7,1.7l0,0C10.5,6.8,10,7.2,9.5,7.2l0,0C9.3,7.2,9.2,7.1,9,7.1z"/>
		<path id="XMLID_00000161612066024260241290000017379982137176305820_" class="st0" d="M1.8,25.7c-0.4,0-0.7-0.1-0.9-0.4
			c-0.2-0.2-0.4-0.6-0.4-0.9c0-0.3,0.1-0.7,0.4-0.9c0.5-0.5,1.4-0.5,1.9,0c0.2,0.2,0.4,0.6,0.4,0.9c0,0.4-0.1,0.7-0.4,0.9
			C2.4,25.6,2.1,25.7,1.8,25.7z"/>
	</g>
	<path id="XMLID_00000099646608380383792490000014402514393738692231_" class="st1" d="M158.5,1.8c-0.3-0.7-0.7-1-1.4-1h-0.1
		c-0.6,0-1.1,0.3-1.4,1l-9.5,22.7c-0.1,0.2-0.1,0.4-0.1,0.5c0,0.6,0.6,1.2,1.2,1.2c0.5,0,1-0.3,1.2-0.9l8.6-21l8.6,21
		c0.2,0.6,0.7,1,1.2,1c0.7,0,1.2-0.7,1.2-1.2c0-0.2,0-0.3-0.1-0.5L158.5,1.8z"/>
	<path id="XMLID_00000160173694853717707210000017913908669227209113_" class="st1" d="M190.3,0.8c-0.5,0-1,0.3-1.2,0.9l-8.6,21
		l-8.6-21c-0.2-0.6-0.7-1-1.2-1c-0.7,0-1.2,0.7-1.2,1.2c0,0.2,0,0.3,0.1,0.5l9.5,22.7c0.3,0.7,0.7,1,1.4,1h0.1c0.6,0,1.1-0.3,1.4-1
		l9.5-22.7c0.1-0.2,0.1-0.3,0.1-0.5C191.5,1.3,190.9,0.8,190.3,0.8z"/>
	<path id="XMLID_00000027573234413469221790000008169564583446352259_" class="st1" d="M211.5,23.7h-11.7V3.5h11.5
		c0.6,0,1-0.5,1-1.2s-0.5-1.2-1-1.2h-12.6c-0.6,0-1.1,0.6-1.1,1.3v22.5c0,0.7,0.5,1.3,1.1,1.3h12.8c0.6,0,1-0.5,1-1.2
		C212.6,24.3,212.1,23.7,211.5,23.7z"/>
	<path id="XMLID_00000114051602811309329660000011999611834991046053_" class="st1" d="M97.3,0.7C96.6,0.7,96,1.3,96,2v23.2
		c0,0.7,0.6,1.3,1.3,1.3c0.7,0,1.3-0.6,1.3-1.3V2C98.6,1.3,98,0.7,97.3,0.7z"/>
	<path id="XMLID_00000159462148849486355140000012371027318171682195_" class="st1" d="M77.5,0.8h-6.1c-0.6,0-1.1,0.6-1.1,1.3V25
		c0,0.7,0.5,1.3,1.1,1.3h6.1c6.6,0,11.4-5.4,11.4-12.7v-0.1C88.9,6.1,84.1,0.8,77.5,0.8z M86.5,13.5L86.5,13.5
		c0,6.1-3.7,10.3-9.1,10.3h-5V3.2h5C82.7,3.2,86.5,7.5,86.5,13.5z"/>
	<path id="XMLID_00000145032716381457768750000007458905120953980828_" class="st1" d="M61,23.7H49.3V3.5h11.5c0.6,0,1-0.5,1-1.2
		s-0.5-1.2-1-1.2H48.2c-0.6,0-1.1,0.6-1.1,1.3v22.5c0,0.7,0.5,1.3,1.1,1.3H61c0.6,0,1-0.5,1-1.2C62,24.3,61.5,23.7,61,23.7z"/>
	<g id="XMLID_00000129907613519306853690000007226343786144349626_">
		<path id="XMLID_00000114773176630928437490000014057625164351170181_" class="st0" d="M107.8,0.8c0.4,0,0.7,0.1,0.9,0.4
			c0.3,0.2,0.4,0.6,0.4,0.9c0,0.3-0.1,0.7-0.4,0.9c-0.5,0.5-1.4,0.5-1.9,0c-0.2-0.2-0.4-0.6-0.4-0.9c0-0.4,0.1-0.7,0.4-0.9
			C107.1,1,107.4,0.8,107.8,0.8z"/>
		<path id="XMLID_00000129179916045697760270000003901903226094911647_" class="st0" d="M110.6,5.3c0.3,0.7,0,1.4-0.7,1.7l0,0
			c-0.7,0.3-1.4,0-1.7-0.7l0,0c-0.3-0.7,0-1.4,0.7-1.7l0,0c0.2-0.1,0.3-0.1,0.5-0.1l0,0C109.9,4.5,110.4,4.8,110.6,5.3z M112.2,9
			c0.3,0.7,0,1.4-0.7,1.7l0,0c-0.7,0.3-1.4,0-1.7-0.7l0,0c-0.3-0.7,0-1.4,0.7-1.7l0,0c0.2-0.1,0.3-0.1,0.5-0.1l0,0
			C111.5,8.3,112,8.5,112.2,9z M113.8,12.8c0.3,0.7,0,1.4-0.7,1.7l0,0c-0.7,0.3-1.4,0-1.7-0.7l0,0c-0.3-0.7,0-1.4,0.7-1.7l0,0
			c0.2-0.1,0.3-0.1,0.5-0.1l0,0C113.1,12,113.6,12.3,113.8,12.8z M115.4,16.5c0.3,0.7,0,1.4-0.7,1.7l0,0c-0.7,0.3-1.4,0-1.7-0.7l0,0
			c-0.3-0.7,0-1.4,0.7-1.7l0,0c0.2-0.1,0.3-0.1,0.5-0.1l0,0C114.7,15.7,115.2,16,115.4,16.5z M117,20.2c0.3,0.7,0,1.4-0.7,1.7l0,0
			c-0.7,0.3-1.4,0-1.7-0.7l0,0c-0.3-0.7,0-1.4,0.7-1.7l0,0c0.2-0.1,0.3-0.1,0.5-0.1l0,0C116.3,19.4,116.8,19.7,117,20.2z"/>
		<path id="XMLID_00000180356770859858421310000012715847104083585446_" class="st0" d="M117.4,23.1c0.4,0,0.7,0.1,0.9,0.4
			c0.2,0.3,0.4,0.6,0.4,0.9c0,0.3-0.1,0.7-0.4,0.9c-0.5,0.5-1.4,0.5-1.9,0c-0.2-0.2-0.4-0.6-0.4-0.9c0-0.4,0.1-0.7,0.4-0.9
			C116.8,23.3,117.1,23.1,117.4,23.1z"/>
		<path id="XMLID_00000093141692691969484920000005055267617505616290_" class="st0" d="M125.7,4.6c0.7,0.3,1,1.1,0.7,1.7l0,0
			c-0.3,0.7-1.1,1-1.7,0.7l0,0c-0.7-0.3-1-1.1-0.7-1.7l0,0c0.2-0.5,0.7-0.8,1.2-0.8l0,0C125.4,4.5,125.5,4.6,125.7,4.6z M124.2,8.3
			c0.7,0.3,1,1.1,0.7,1.7l0,0c-0.3,0.7-1,1-1.7,0.7l0,0c-0.7-0.3-1-1.1-0.7-1.7l0,0c0.2-0.5,0.7-0.8,1.2-0.8l0,0
			C123.8,8.2,124,8.3,124.2,8.3z M122.6,12.1c0.7,0.3,1,1.1,0.7,1.7l0,0c-0.3,0.7-1,1-1.7,0.7l0,0c-0.7-0.3-1-1-0.7-1.7l0,0
			c0.2-0.5,0.7-0.8,1.2-0.8l0,0C122.3,12,122.4,12,122.6,12.1z M121.1,15.8c0.7,0.3,1,1.1,0.7,1.7l0,0c-0.3,0.7-1,1-1.7,0.7l0,0
			c-0.7-0.3-1-1-0.7-1.7l0,0c0.2-0.5,0.7-0.8,1.2-0.8l0,0C120.7,15.7,120.9,15.7,121.1,15.8z M119.5,19.5c0.7,0.3,1,1.1,0.7,1.7h0
			c-0.3,0.7-1,1-1.7,0.7l0,0c-0.7-0.3-1-1-0.7-1.7l0,0l0,0l0,0c0.2-0.5,0.7-0.8,1.2-0.8l0,0C119.2,19.4,119.3,19.4,119.5,19.5z"/>
		<path id="XMLID_00000016068280823922843670000006713202360586594185_" class="st0" d="M126.7,0.8c0.4,0,0.7,0.1,0.9,0.4
			c0.2,0.2,0.4,0.6,0.4,0.9c0,0.3-0.1,0.7-0.4,0.9c-0.5,0.5-1.4,0.5-1.9,0c-0.2-0.2-0.4-0.6-0.4-0.9c0-0.4,0.1-0.7,0.4-0.9
			C126.1,1,126.4,0.8,126.7,0.8z"/>
		<path id="XMLID_00000166671987286024026180000015786077317090985345_" class="st0" d="M129.6,5.3c0.3,0.7,0,1.4-0.7,1.7l0,0
			c-0.7,0.3-1.4,0-1.7-0.7l0,0c-0.3-0.7,0-1.4,0.7-1.7l0,0c0.2-0.1,0.4-0.1,0.5-0.1l0,0C128.9,4.5,129.4,4.8,129.6,5.3z M131.2,9
			c0.3,0.7,0,1.4-0.7,1.7l0,0c-0.7,0.3-1.4,0-1.7-0.7l0,0c-0.3-0.7,0-1.4,0.7-1.7l0,0c0.2-0.1,0.3-0.1,0.5-0.1l0,0
			C130.5,8.3,131,8.5,131.2,9z M132.8,12.8c0.3,0.7,0,1.4-0.7,1.7l0,0c-0.7,0.3-1.4,0-1.7-0.7l0,0c-0.3-0.7,0-1.4,0.7-1.7l0,0
			c0.2-0.1,0.4-0.1,0.5-0.1l0,0C132.1,12,132.6,12.3,132.8,12.8z M134.4,16.5c0.3,0.7,0,1.4-0.7,1.7l0,0c-0.7,0.3-1.4,0-1.7-0.7l0,0
			c-0.3-0.7,0-1.4,0.7-1.7l0,0c0.2-0.1,0.3-0.1,0.5-0.1l0,0C133.7,15.7,134.2,16,134.4,16.5z M136,20.2c0.3,0.7,0,1.4-0.7,1.7l0,0
			c-0.7,0.3-1.4,0-1.7-0.7l0,0c-0.3-0.7,0-1.4,0.7-1.7l0,0c0.2-0.1,0.4-0.1,0.5-0.1l0,0C135.3,19.4,135.8,19.7,136,20.2z"/>
		<path id="XMLID_00000174586594301933489450000002739669714390147474_" class="st0" d="M136.4,23.1c0.4,0,0.7,0.1,0.9,0.4
			c0.2,0.3,0.4,0.6,0.4,0.9c0,0.3-0.1,0.7-0.4,0.9c-0.5,0.5-1.4,0.5-1.9,0c-0.2-0.2-0.4-0.6-0.4-0.9c0-0.4,0.1-0.7,0.4-0.9
			C135.7,23.3,136.1,23.1,136.4,23.1z"/>
		<path id="XMLID_00000085964565049525370770000010734761739719140484_" class="st0" d="M144.7,4.6c0.7,0.3,1,1.1,0.7,1.7l0,0
			c-0.3,0.7-1,1-1.7,0.7l0,0c-0.7-0.3-1-1.1-0.7-1.7l0,0c0.2-0.5,0.7-0.8,1.2-0.8l0,0C144.3,4.5,144.5,4.6,144.7,4.6z M143.1,8.4
			c0.7,0.3,1,1,0.7,1.7l0,0c-0.3,0.7-1.1,1-1.7,0.7l0,0c-0.7-0.3-1-1.1-0.7-1.7l0,0c0.2-0.5,0.7-0.8,1.2-0.8l0,0
			C142.8,8.3,143,8.3,143.1,8.4z M141.6,12.1c0.7,0.3,1,1,0.7,1.7l0,0c-0.3,0.7-1.1,1-1.7,0.7l0,0c-0.7-0.3-1-1-0.7-1.7l0,0
			c0.2-0.5,0.7-0.8,1.2-0.8l0,0C141.2,12,141.4,12,141.6,12.1z M140,15.8c0.7,0.3,1,1,0.7,1.7l0,0c-0.3,0.7-1,1-1.7,0.7l0,0
			c-0.7-0.3-1-1.1-0.7-1.7l0,0c0.2-0.5,0.7-0.8,1.2-0.8l0,0C139.7,15.7,139.9,15.7,140,15.8z M138.5,19.5c0.7,0.3,1,1.1,0.7,1.7l0,0
			c-0.3,0.7-1.1,1-1.7,0.7l0,0c-0.7-0.3-1-1-0.7-1.7l0,0c0.2-0.5,0.7-0.8,1.2-0.8l0,0C138.1,19.4,138.3,19.4,138.5,19.5z"/>
		<path id="XMLID_00000152250488237466723580000009475320294302016446_" class="st0" d="M145.7,0.8c0.4,0,0.7,0.1,0.9,0.4
			c0.2,0.2,0.4,0.6,0.4,0.9c0,0.3-0.1,0.7-0.4,0.9c-0.5,0.5-1.4,0.5-1.9,0c-0.2-0.2-0.4-0.6-0.4-0.9c0-0.4,0.1-0.7,0.4-0.9
			C145,1,145.4,0.8,145.7,0.8z"/>
	</g>
</g>
</svg>
