<?xml version="1.0" encoding="utf-8"?>
<!-- Generator: Adobe Illustrator 17.0.0, SVG Export Plug-In . SVG Version: 6.00 Build 0)  -->
<!DOCTYPE svg PUBLIC "-//W3C//DTD SVG 1.1//EN" "http://www.w3.org/Graphics/SVG/1.1/DTD/svg11.dtd">
<svg version="1.1" id="Layer_1" xmlns="http://www.w3.org/2000/svg" xmlns:xlink="http://www.w3.org/1999/xlink" x="0px" y="0px"
	 width="213px" height="27.125px" viewBox="0 0 213 27.125" enable-background="new 0 0 213 27.125" xml:space="preserve">
<g>
	<g id="XMLID_870_">
		<path id="XMLID_966_" fill="#FFFFFF" d="M39.711,25.768c-0.354,0-0.682-0.137-0.93-0.39c-0.252-0.243-0.389-0.575-0.389-0.929
			c0-0.345,0.142-0.686,0.389-0.929c0.491-0.491,1.367-0.491,1.863,0c0.243,0.243,0.385,0.584,0.385,0.929
			c0,0.354-0.137,0.686-0.385,0.929C40.393,25.631,40.065,25.768,39.711,25.768z"/>
		<path id="XMLID_958_" fill="#FFFFFF" d="M36.892,21.254c-0.292-0.664,0.013-1.443,0.682-1.73l0,0
			c0.668-0.288,1.443,0.018,1.735,0.682l0,0c0.287,0.668-0.018,1.447-0.686,1.735l0,0c-0.172,0.075-0.349,0.111-0.522,0.111l0,0
			C37.592,22.051,37.105,21.754,36.892,21.254z M35.277,17.537c-0.288-0.668,0.018-1.443,0.686-1.73l0,0
			c0.668-0.292,1.443,0.018,1.73,0.682l0,0c0.292,0.669-0.018,1.443-0.682,1.735l0,0c-0.172,0.071-0.35,0.106-0.526,0.106l0,0
			C35.976,18.329,35.494,18.037,35.277,17.537z M33.661,13.82c-0.287-0.669,0.018-1.443,0.686-1.735l0,0
			c0.668-0.288,1.447,0.018,1.735,0.686l0,0c0.287,0.668-0.018,1.443-0.686,1.735l0,0c-0.169,0.071-0.35,0.106-0.523,0.106l0,0
			C34.365,14.612,33.878,14.315,33.661,13.82z M32.051,10.102c-0.288-0.668,0.018-1.443,0.686-1.735l0,0
			c0.669-0.288,1.443,0.018,1.73,0.686l0,0c0.292,0.668-0.013,1.443-0.682,1.735l0,0c-0.172,0.071-0.35,0.106-0.526,0.106l0,0
			C32.75,10.894,32.268,10.598,32.051,10.102z M30.44,6.384c-0.292-0.668,0.018-1.443,0.686-1.735l0,0
			c0.664-0.287,1.443,0.018,1.73,0.686l0,0c0.287,0.668-0.018,1.443-0.686,1.73l0,0c-0.169,0.075-0.345,0.111-0.523,0.111l0,0
			C31.139,7.177,30.652,6.88,30.44,6.384z"/>
		<path id="XMLID_906_" fill="#FFFFFF" d="M30.037,3.459c-0.354,0-0.686-0.137-0.934-0.385c-0.248-0.252-0.385-0.58-0.385-0.934
			c0-0.345,0.142-0.686,0.385-0.934c0.491-0.487,1.372-0.487,1.863,0c0.243,0.248,0.385,0.589,0.385,0.934
			c0,0.35-0.137,0.682-0.385,0.934C30.719,3.322,30.387,3.459,30.037,3.459z"/>
		<path id="XMLID_898_" fill="#FFFFFF" d="M21.77,21.962c-0.669-0.279-0.987-1.053-0.708-1.721l0,0
			c0.279-0.673,1.053-0.991,1.722-0.713l0,0c0.672,0.284,0.991,1.053,0.708,1.726l0,0c-0.208,0.504-0.699,0.81-1.213,0.81l0,0
			C22.107,22.064,21.939,22.029,21.77,21.962z M23.324,18.24c-0.673-0.279-0.991-1.053-0.708-1.721l0,0
			c0.279-0.672,1.049-0.991,1.722-0.713l0,0c0.672,0.284,0.987,1.053,0.708,1.726l0,0c-0.212,0.504-0.699,0.81-1.217,0.81l0,0
			C23.66,18.342,23.488,18.311,23.324,18.24z M24.873,14.519c-0.668-0.279-0.987-1.054-0.708-1.722l0,0
			c0.279-0.672,1.049-0.991,1.722-0.708l0,0c0.672,0.279,0.991,1.049,0.712,1.721l0,0c-0.212,0.505-0.704,0.81-1.217,0.81l0,0
			C25.213,14.62,25.041,14.589,24.873,14.519z M26.426,10.797c-0.672-0.279-0.991-1.053-0.708-1.722l0,0
			c0.279-0.672,1.049-0.991,1.721-0.708l0,0c0.672,0.279,0.987,1.049,0.708,1.721l0,0c-0.212,0.505-0.699,0.81-1.217,0.81l0,0
			C26.762,10.899,26.59,10.868,26.426,10.797z M27.979,7.075c-0.672-0.279-0.991-1.053-0.712-1.721h0.004
			c0.279-0.673,1.049-0.991,1.721-0.708l0,0c0.668,0.279,0.987,1.049,0.708,1.721l0,0l0,0l0,0c-0.213,0.505-0.699,0.81-1.217,0.81
			l0,0C28.316,7.177,28.143,7.146,27.979,7.075z"/>
		<path id="XMLID_895_" fill="#FFFFFF" d="M20.735,25.768c-0.354,0-0.686-0.137-0.934-0.39c-0.248-0.248-0.385-0.575-0.385-0.929
			c0-0.345,0.142-0.686,0.385-0.929c0.491-0.491,1.367-0.491,1.863-0.005c0.248,0.248,0.385,0.589,0.385,0.934
			c0,0.354-0.137,0.682-0.385,0.929C21.416,25.631,21.084,25.768,20.735,25.768z"/>
		<path id="XMLID_887_" fill="#FFFFFF" d="M17.911,21.254c-0.287-0.664,0.018-1.443,0.686-1.73l0,0
			c0.669-0.288,1.443,0.018,1.73,0.682l0,0c0.292,0.668-0.018,1.447-0.682,1.735l0,0c-0.172,0.075-0.35,0.111-0.526,0.111l0,0
			C18.61,22.051,18.128,21.754,17.911,21.254z M16.3,17.537c-0.292-0.668,0.018-1.443,0.682-1.73l0,0
			c0.668-0.292,1.443,0.018,1.735,0.682l0,0c0.288,0.669-0.018,1.443-0.686,1.735l0,0c-0.168,0.071-0.345,0.106-0.523,0.106l0,0
			C17,18.329,16.513,18.037,16.3,17.537z M14.685,13.82c-0.287-0.669,0.018-1.443,0.686-1.735l0,0
			c0.668-0.288,1.443,0.018,1.73,0.686l0,0c0.292,0.668-0.013,1.443-0.682,1.735l0,0c-0.172,0.071-0.35,0.106-0.522,0.106l0,0
			C15.384,14.612,14.902,14.315,14.685,13.82z M13.074,10.102c-0.288-0.668,0.018-1.443,0.686-1.735l0,0
			c0.664-0.288,1.443,0.018,1.73,0.686l0,0c0.288,0.668-0.018,1.443-0.686,1.735l0,0c-0.168,0.071-0.345,0.106-0.523,0.106l0,0
			C13.773,10.894,13.291,10.598,13.074,10.102z M11.463,6.384c-0.292-0.668,0.013-1.443,0.682-1.735l0,0
			c0.668-0.287,1.443,0.018,1.735,0.686l0,0c0.287,0.664-0.018,1.443-0.686,1.73l0,0c-0.172,0.075-0.35,0.111-0.522,0.111l0,0
			C12.163,7.177,11.676,6.88,11.463,6.384z"/>
		<path id="XMLID_884_" fill="#FFFFFF" d="M11.056,3.459c-0.35,0-0.682-0.137-0.93-0.385C9.879,2.822,9.742,2.494,9.742,2.14
			c0-0.345,0.137-0.686,0.385-0.934c0.491-0.487,1.372-0.487,1.863,0c0.243,0.248,0.385,0.589,0.385,0.934
			c0,0.35-0.137,0.682-0.385,0.934C11.737,3.322,11.41,3.459,11.056,3.459z"/>
		<path id="XMLID_876_" fill="#FFFFFF" d="M2.798,21.949c-0.673-0.283-0.987-1.053-0.708-1.721l0,0
			c0.279-0.672,1.049-0.991,1.722-0.713l0,0c0.672,0.279,0.991,1.054,0.708,1.726l0,0c-0.212,0.504-0.699,0.81-1.217,0.81l0,0
			C3.135,22.051,2.962,22.015,2.798,21.949z M4.347,18.227c-0.669-0.279-0.987-1.049-0.708-1.722l0,0
			c0.279-0.668,1.053-0.987,1.722-0.708l0,0c0.672,0.279,0.991,1.053,0.712,1.721l0,0c-0.212,0.509-0.704,0.814-1.217,0.814l0,0
			C4.688,18.333,4.515,18.298,4.347,18.227z M5.9,14.51c-0.673-0.279-0.991-1.049-0.713-1.721l0,0
			c0.284-0.673,1.053-0.987,1.726-0.708l0,0c0.672,0.279,0.987,1.049,0.708,1.722l0,0c-0.212,0.504-0.699,0.81-1.217,0.81l0,0
			C6.237,14.612,6.064,14.581,5.9,14.51z M7.449,10.792c-0.673-0.279-0.987-1.048-0.708-1.721l0,0
			C7.02,8.398,7.79,8.079,8.463,8.358l0,0c0.672,0.284,0.987,1.054,0.708,1.726l0,0c-0.208,0.504-0.699,0.81-1.217,0.81l0,0
			C7.786,10.894,7.613,10.863,7.449,10.792z M8.998,7.075C8.33,6.796,8.011,6.022,8.29,5.354l0,0
			c0.283-0.673,1.053-0.991,1.721-0.708l0,0c0.672,0.279,0.991,1.049,0.713,1.721l0,0c-0.213,0.505-0.704,0.81-1.217,0.81l0,0
			C9.339,7.177,9.166,7.146,8.998,7.075z"/>
		<path id="XMLID_873_" fill="#FFFFFF" d="M1.758,25.768c-0.354,0-0.686-0.137-0.934-0.39c-0.248-0.243-0.385-0.575-0.385-0.929
			c0-0.345,0.141-0.686,0.385-0.929c0.491-0.491,1.372-0.491,1.863,0c0.243,0.243,0.385,0.584,0.385,0.929
			c0,0.354-0.137,0.686-0.39,0.934C2.44,25.631,2.108,25.768,1.758,25.768z"/>
	</g>
	<path id="XMLID_815_" fill="#FFFFFF" d="M158.527,1.836c-0.28-0.681-0.743-1.027-1.374-1.027h-0.067
		c-0.632,0-1.095,0.346-1.374,1.026l-9.535,22.723c-0.103,0.215-0.103,0.35-0.103,0.507c0,0.641,0.562,1.203,1.202,1.203
		c0.504,0,0.955-0.343,1.208-0.924l8.6-21.002l8.566,20.965c0.244,0.611,0.698,0.962,1.243,0.962c0.728,0,1.236-0.652,1.236-1.237
		c0-0.19,0-0.327-0.095-0.525L158.527,1.836z"/>
	<path id="XMLID_814_" fill="#FFFFFF" d="M190.266,0.81c-0.504,0-0.955,0.343-1.208,0.924l-8.6,21.002l-8.566-20.965
		c-0.244-0.611-0.698-0.962-1.243-0.962c-0.728,0-1.236,0.652-1.236,1.238c0,0.19,0,0.327,0.095,0.525l9.508,22.669
		c0.281,0.681,0.743,1.027,1.375,1.027h0.067c0.632,0,1.094-0.346,1.374-1.026l9.534-22.723c0.103-0.215,0.103-0.35,0.103-0.507
		C191.468,1.372,190.906,0.81,190.266,0.81z"/>
	<path id="XMLID_813_" fill="#FFFFFF" d="M211.522,23.756h-11.668V3.481h11.529c0.573,0,1.038-0.54,1.038-1.203
		c0-0.663-0.466-1.203-1.038-1.203h-12.623c-0.593,0-1.094,0.583-1.094,1.273v22.542c0,0.69,0.501,1.273,1.094,1.273h12.763
		c0.573,0,1.038-0.54,1.038-1.203C212.561,24.296,212.095,23.756,211.522,23.756z"/>
	<path id="XMLID_821_" fill="#FFFFFF" d="M97.273,0.696c-0.697,0-1.286,0.589-1.286,1.286v23.161c0,0.697,0.589,1.286,1.286,1.286
		c0.697,0,1.286-0.589,1.286-1.286V1.982C98.559,1.285,97.97,0.696,97.273,0.696z"/>
	<path id="XMLID_817_" fill="#FFFFFF" d="M77.481,0.81h-6.133c-0.617,0-1.138,0.589-1.138,1.286v22.886
		c0,0.697,0.521,1.286,1.138,1.286h6.133c6.6,0,11.39-5.353,11.39-12.729v-0.071C88.87,6.134,84.08,0.81,77.481,0.81z
		 M86.534,13.539v0.071c0,6.021-3.723,10.227-9.053,10.227h-4.994V3.242h4.994C82.726,3.242,86.534,7.573,86.534,13.539z"/>
	<path id="XMLID_812_" fill="#FFFFFF" d="M60.956,23.756H49.288V3.481h11.529c0.573,0,1.039-0.54,1.039-1.203
		c0-0.663-0.466-1.203-1.039-1.203H48.194c-0.593,0-1.094,0.583-1.094,1.273v22.542c0,0.69,0.501,1.273,1.094,1.273h12.763
		c0.573,0,1.038-0.54,1.038-1.203C61.995,24.296,61.529,23.756,60.956,23.756z"/>
	<g id="XMLID_45_">
		<path id="XMLID_811_" fill="#FFFFFF" d="M107.766,0.84c0.354,0,0.682,0.137,0.93,0.39c0.252,0.243,0.389,0.575,0.389,0.929
			c0,0.345-0.142,0.686-0.389,0.929c-0.491,0.491-1.367,0.491-1.863,0c-0.243-0.243-0.385-0.584-0.385-0.929
			c0-0.354,0.137-0.686,0.385-0.929C107.085,0.977,107.413,0.84,107.766,0.84z"/>
		<path id="XMLID_803_" fill="#FFFFFF" d="M110.586,5.354c0.292,0.664-0.013,1.443-0.682,1.73l0,0
			c-0.668,0.288-1.443-0.018-1.735-0.682l0,0c-0.287-0.668,0.018-1.447,0.686-1.735l0,0c0.172-0.075,0.349-0.111,0.522-0.111l0,0
			C109.886,4.557,110.373,4.854,110.586,5.354z M112.201,9.071c0.288,0.668-0.018,1.443-0.686,1.73l0,0
			c-0.668,0.292-1.443-0.018-1.73-0.682l0,0c-0.292-0.669,0.018-1.443,0.682-1.735l0,0c0.172-0.071,0.35-0.106,0.526-0.106l0,0
			C111.502,8.279,111.984,8.571,112.201,9.071z M113.817,12.788c0.287,0.669-0.018,1.443-0.686,1.735l0,0
			c-0.668,0.288-1.447-0.018-1.735-0.686l0,0c-0.287-0.668,0.018-1.443,0.686-1.735l0,0c0.169-0.071,0.35-0.106,0.523-0.106l0,0
			C113.113,11.996,113.6,12.293,113.817,12.788z M115.427,16.506c0.288,0.668-0.018,1.443-0.686,1.735l0,0
			c-0.669,0.288-1.443-0.018-1.73-0.686l0,0c-0.292-0.668,0.013-1.443,0.682-1.735l0,0c0.172-0.071,0.35-0.106,0.526-0.106l0,0
			C114.728,15.714,115.21,16.01,115.427,16.506z M117.038,20.224c0.292,0.668-0.018,1.443-0.686,1.735l0,0
			c-0.664,0.287-1.443-0.018-1.73-0.686l0,0c-0.287-0.668,0.018-1.443,0.686-1.73l0,0c0.169-0.075,0.345-0.111,0.523-0.111l0,0
			C116.339,19.431,116.826,19.728,117.038,20.224z"/>
		<path id="XMLID_800_" fill="#FFFFFF" d="M117.441,23.149c0.354,0,0.686,0.137,0.934,0.385c0.248,0.252,0.385,0.58,0.385,0.934
			c0,0.345-0.142,0.686-0.385,0.934c-0.491,0.487-1.372,0.487-1.863,0c-0.243-0.248-0.385-0.589-0.385-0.934
			c0-0.35,0.137-0.682,0.385-0.934C116.759,23.286,117.091,23.149,117.441,23.149z"/>
		<path id="XMLID_744_" fill="#FFFFFF" d="M125.708,4.646c0.669,0.279,0.987,1.053,0.708,1.721l0,0
			c-0.279,0.673-1.053,0.991-1.722,0.713l0,0c-0.672-0.284-0.991-1.053-0.708-1.726l0,0c0.208-0.504,0.699-0.81,1.213-0.81l0,0
			C125.371,4.544,125.539,4.579,125.708,4.646z M124.154,8.368c0.673,0.279,0.991,1.053,0.708,1.721l0,0
			c-0.279,0.672-1.049,0.991-1.722,0.713l0,0c-0.672-0.284-0.987-1.053-0.708-1.726l0,0c0.212-0.504,0.699-0.81,1.217-0.81l0,0
			C123.818,8.266,123.99,8.297,124.154,8.368z M122.605,12.089c0.668,0.279,0.987,1.054,0.708,1.722l0,0
			c-0.279,0.672-1.049,0.991-1.722,0.708l0,0c-0.672-0.279-0.991-1.049-0.712-1.721l0,0c0.212-0.505,0.704-0.81,1.217-0.81l0,0
			C122.265,11.988,122.437,12.019,122.605,12.089z M121.052,15.811c0.672,0.279,0.991,1.053,0.708,1.722l0,0
			c-0.279,0.672-1.049,0.991-1.721,0.708l0,0c-0.672-0.279-0.987-1.049-0.708-1.721l0,0c0.212-0.505,0.699-0.81,1.217-0.81l0,0
			C120.716,15.71,120.888,15.74,121.052,15.811z M119.499,19.533c0.672,0.279,0.991,1.053,0.712,1.721h-0.004
			c-0.279,0.673-1.049,0.991-1.721,0.708l0,0c-0.668-0.279-0.987-1.049-0.708-1.721l0,0l0,0l0,0c0.213-0.505,0.699-0.81,1.217-0.81
			l0,0C119.162,19.431,119.335,19.462,119.499,19.533z"/>
		<path id="XMLID_741_" fill="#FFFFFF" d="M126.743,0.84c0.354,0,0.686,0.137,0.934,0.39c0.248,0.248,0.385,0.575,0.385,0.929
			c0,0.345-0.142,0.686-0.385,0.929c-0.491,0.491-1.367,0.491-1.863,0.005c-0.248-0.248-0.385-0.589-0.385-0.934
			c0-0.354,0.137-0.682,0.385-0.929C126.062,0.977,126.394,0.84,126.743,0.84z"/>
		<path id="XMLID_719_" fill="#FFFFFF" d="M129.567,5.354c0.287,0.664-0.018,1.443-0.686,1.73l0,0
			c-0.669,0.288-1.443-0.018-1.73-0.682l0,0c-0.292-0.668,0.018-1.447,0.682-1.735l0,0c0.172-0.075,0.35-0.111,0.526-0.111l0,0
			C128.868,4.557,129.35,4.854,129.567,5.354z M131.178,9.071c0.292,0.668-0.018,1.443-0.682,1.73l0,0
			c-0.668,0.292-1.443-0.018-1.735-0.682l0,0c-0.288-0.669,0.018-1.443,0.686-1.735l0,0c0.168-0.071,0.345-0.106,0.523-0.106l0,0
			C130.478,8.279,130.965,8.571,131.178,9.071z M132.793,12.788c0.287,0.669-0.018,1.443-0.686,1.735l0,0
			c-0.668,0.288-1.443-0.018-1.73-0.686l0,0c-0.292-0.668,0.013-1.443,0.682-1.735l0,0c0.172-0.071,0.35-0.106,0.522-0.106l0,0
			C132.094,11.996,132.576,12.293,132.793,12.788z M134.404,16.506c0.288,0.668-0.018,1.443-0.686,1.735l0,0
			c-0.664,0.288-1.443-0.018-1.73-0.686l0,0c-0.288-0.668,0.018-1.443,0.686-1.735l0,0c0.168-0.071,0.345-0.106,0.523-0.106l0,0
			C133.705,15.714,134.187,16.01,134.404,16.506z M136.015,20.224c0.292,0.668-0.013,1.443-0.682,1.735l0,0
			c-0.668,0.287-1.443-0.018-1.735-0.686l0,0c-0.287-0.664,0.018-1.443,0.686-1.73l0,0c0.172-0.075,0.35-0.111,0.522-0.111l0,0
			C135.315,19.431,135.802,19.728,136.015,20.224z"/>
		<path id="XMLID_716_" fill="#FFFFFF" d="M136.422,23.149c0.35,0,0.682,0.137,0.93,0.385c0.248,0.252,0.385,0.58,0.385,0.934
			c0,0.345-0.137,0.686-0.385,0.934c-0.491,0.487-1.372,0.487-1.863,0c-0.243-0.248-0.385-0.589-0.385-0.934
			c0-0.35,0.137-0.682,0.385-0.934C135.741,23.286,136.068,23.149,136.422,23.149z"/>
		<path id="XMLID_302_" fill="#FFFFFF" d="M144.68,4.659c0.673,0.283,0.987,1.053,0.708,1.721l0,0
			c-0.279,0.672-1.049,0.991-1.722,0.713l0,0c-0.672-0.279-0.991-1.054-0.708-1.726l0,0c0.212-0.504,0.699-0.81,1.217-0.81l0,0
			C144.344,4.557,144.516,4.593,144.68,4.659z M143.131,8.381c0.669,0.279,0.987,1.049,0.708,1.722l0,0
			c-0.279,0.668-1.053,0.987-1.722,0.708l0,0c-0.672-0.279-0.991-1.053-0.712-1.721l0,0c0.212-0.509,0.704-0.814,1.217-0.814l0,0
			C142.79,8.275,142.963,8.31,143.131,8.381z M141.578,12.098c0.673,0.279,0.991,1.049,0.713,1.721l0,0
			c-0.284,0.673-1.053,0.987-1.726,0.708l0,0c-0.672-0.279-0.987-1.049-0.708-1.722l0,0c0.212-0.504,0.699-0.81,1.217-0.81l0,0
			C141.241,11.996,141.414,12.027,141.578,12.098z M140.029,15.816c0.673,0.279,0.987,1.048,0.708,1.721l0,0
			c-0.279,0.672-1.048,0.991-1.721,0.713l0,0c-0.672-0.284-0.987-1.054-0.708-1.726l0,0c0.208-0.504,0.699-0.81,1.217-0.81l0,0
			C139.692,15.714,139.865,15.745,140.029,15.816z M138.48,19.533c0.668,0.279,0.987,1.053,0.708,1.721l0,0
			c-0.283,0.673-1.053,0.991-1.721,0.708l0,0c-0.672-0.279-0.991-1.049-0.713-1.721l0,0c0.213-0.505,0.704-0.81,1.217-0.81l0,0
			C138.139,19.431,138.312,19.462,138.48,19.533z"/>
		<path id="XMLID_254_" fill="#FFFFFF" d="M145.72,0.84c0.354,0,0.686,0.137,0.934,0.39c0.248,0.243,0.385,0.575,0.385,0.929
			c0,0.345-0.141,0.686-0.385,0.929c-0.491,0.491-1.372,0.491-1.863,0c-0.243-0.243-0.385-0.584-0.385-0.929
			c0-0.354,0.137-0.686,0.39-0.934C145.038,0.977,145.37,0.84,145.72,0.84z"/>
	</g>
</g>
</svg>
